# 3ds Max Wavefront OBJ Exporter v0.97b - (c)2007 guruware
# File Created: 20.11.2016 16:33:25

mtllib Asset_Coffin_Bot.mtl

#
# object Object029
#

v  -67.9473 9.4071 -249.3184
v  67.9473 9.4071 -249.3184
v  45.7603 9.4071 -318.6906
v  -45.7603 9.4071 -318.6906
v  -32.3567 9.4071 -5.9063
v  32.3567 9.4071 -5.9063
v  45.7603 4.3541 -318.6906
v  67.9473 4.3541 -249.3184
v  -67.9473 4.3541 -249.3184
v  -45.7603 4.3541 -318.6906
v  32.3567 4.3541 -5.9063
v  -32.3567 4.3541 -5.9063
v  75.0598 56.3107 -249.9395
v  75.0598 28.1554 -249.9395
v  50.0382 28.1554 -324.7579
v  50.0382 56.3107 -324.7579
v  -75.0598 56.3107 -249.9395
v  -50.0382 56.3107 -324.7579
v  -50.0382 28.1554 -324.7579
v  -75.0598 28.1554 -249.9395
v  67.9473 56.3107 -249.3184
v  32.3567 56.3107 -5.9063
v  37.4905 56.3107 0.1282
v  45.7603 56.3107 -318.6906
v  -45.7603 56.3107 -318.6906
v  -67.9473 56.3107 -249.3184
v  -37.4905 56.3107 0.1282
v  -32.3567 56.3107 -5.9063
v  37.4905 28.1554 0.1282
v  -37.4905 28.1554 0.1282
v  75.0598 0.0000 -249.9395
v  50.0382 0.0000 -324.7579
v  -50.0382 0.0000 -324.7579
v  -75.0598 0.0000 -249.9395
v  32.3567 0.0000 -5.9063
v  67.9473 0.0000 -249.3184
v  37.4905 0.0000 0.1282
v  45.7603 0.0000 -318.6906
v  -45.7603 0.0000 -318.6906
v  -67.9473 0.0000 -249.3184
v  -32.3567 0.0000 -5.9063
v  -37.4905 0.0000 0.1282
v  64.2043 31.2438 -182.3443
v  67.7650 31.2438 -181.7997
v  67.7650 53.0389 -181.7997
v  64.2043 53.8393 -182.3441
v  68.9160 55.1128 -181.6236
v  67.0096 56.4592 -181.9151
v  71.7574 57.2596 -181.1890
v  71.4696 59.1152 -181.2332
v  74.4189 57.1504 -180.7820
v  74.9584 59.0424 -180.6994
v  78.5192 57.2233 -180.1550
v  77.1165 55.6222 -180.3696
v  78.5551 53.3299 -180.1494
v  80.6053 54.0940 -179.8358
v  80.7132 50.0189 -179.8193
v  78.4832 50.3099 -180.1604
v  77.2244 47.6902 -180.3530
v  79.0587 46.4167 -180.0723
v  74.9944 46.3439 -180.6941
v  75.8936 44.2699 -180.5564
v  72.4767 45.8346 -181.0791
v  72.7284 43.9060 -181.0406
v  71.1322 31.2438 -203.8169
v  67.5714 31.2438 -204.3616
v  67.5714 53.8393 -204.3616
v  71.1322 53.0389 -203.8169
v  70.3769 56.4592 -203.9326
v  72.2831 55.1128 -203.6411
v  75.1246 57.2596 -203.2063
v  74.8369 59.1154 -203.2504
v  78.3257 59.0424 -202.7171
v  77.7862 57.1504 -202.7995
v  80.4838 55.6222 -202.3868
v  81.8865 57.2233 -202.1722
v  81.9224 53.3299 -202.1667
v  83.9726 54.0940 -201.8534
v  84.0805 50.0189 -201.8368
v  81.8505 50.3099 -202.1779
v  82.4260 46.4167 -202.0898
v  80.5917 47.6902 -202.3705
v  79.2608 44.2699 -202.5739
v  78.3617 46.3439 -202.7114
v  75.8440 45.8346 -203.0965
v  76.0957 43.9060 -203.0578
v  50.8394 31.2438 -91.9323
v  54.4002 31.2438 -91.3875
v  54.4002 53.0389 -91.3875
v  50.8394 53.8393 -91.9323
v  55.5511 55.1128 -91.2117
v  53.6447 56.4592 -91.5030
v  58.3926 57.2596 -90.7770
v  58.1047 59.1152 -90.8211
v  61.0540 57.1504 -90.3700
v  61.5936 59.0424 -90.2873
v  65.1543 57.2233 -89.7428
v  63.7516 55.6222 -89.9573
v  65.1903 53.3299 -89.7373
v  67.2405 54.0940 -89.4238
v  67.3483 50.0189 -89.4073
v  65.1183 50.3099 -89.7482
v  63.8595 47.6902 -89.9408
v  65.6938 46.4167 -89.6603
v  61.6295 46.3439 -90.2818
v  62.5288 44.2699 -90.1443
v  59.1119 45.8346 -90.6668
v  59.3636 43.9060 -90.6284
v  57.7673 31.2438 -113.4050
v  54.2066 31.2438 -113.9495
v  54.2066 53.8393 -113.9495
v  57.7673 53.0389 -113.4050
v  57.0120 56.4592 -113.5203
v  58.9183 55.1128 -113.2289
v  61.7597 57.2596 -112.7942
v  61.4720 59.1154 -112.8385
v  64.9609 59.0424 -112.3048
v  64.4213 57.1504 -112.3872
v  67.1190 55.6222 -111.9748
v  68.5216 57.2233 -111.7601
v  68.5576 53.3299 -111.7546
v  70.6078 54.0940 -111.4412
v  70.7157 50.0189 -111.4247
v  68.4857 50.3099 -111.7656
v  69.0611 46.4167 -111.6777
v  67.2268 47.6902 -111.9582
v  65.8961 44.2699 -112.1616
v  64.9968 46.3439 -112.2995
v  62.4792 45.8346 -112.6845
v  62.7309 43.9060 -112.6459
# 130 vertices

vn 0.0000 1.0000 -0.0000
vn 0.0000 -1.0000 -0.0000
vn 0.9484 0.0000 -0.3172
vn -0.9484 0.0000 -0.3172
vn 0.9889 0.0000 0.1486
vn 0.0000 0.0000 -1.0000
vn -0.9889 0.0000 0.1486
vn 0.0000 0.0000 1.0000
vn 0.9525 0.0000 0.3046
vn 0.9895 0.0000 -0.1447
vn -0.9966 0.0000 0.0821
vn -0.9895 0.0000 -0.1447
vn -0.9525 0.0000 0.3046
vn -0.1069 -0.7071 0.6990
vn 0.4834 -0.5774 0.6580
vn 0.4955 -0.1618 0.8534
vn -0.5014 0.4124 0.7606
vn 0.3711 -0.4312 0.8224
vn -0.5334 0.5857 0.6103
vn 0.0596 -0.5847 0.8090
vn -0.2882 0.7348 0.6140
vn -0.2891 -0.6215 0.7281
vn 0.0796 0.7286 0.6803
vn 0.3953 0.5671 0.7226
vn -0.5522 -0.4664 0.6910
vn -0.7153 -0.1678 0.6784
vn 0.6178 0.2321 0.7513
vn 0.6284 -0.1524 0.7628
vn -0.7409 0.1539 0.6537
vn -0.5755 0.4253 0.6985
vn 0.4716 -0.4933 0.7309
vn -0.3491 0.6201 0.7026
vn 0.1573 -0.7072 0.6893
vn -0.7422 0.4736 0.4741
vn -0.5839 -0.6429 0.4957
vn 0.6580 -0.5774 -0.4834
vn 0.1069 -0.7071 -0.6990
vn -0.2512 0.4124 -0.8757
vn 0.7279 -0.1618 -0.6663
vn -0.3266 0.5857 -0.7418
vn 0.5999 -0.4311 -0.6740
vn 0.2986 -0.5849 -0.7542
vn -0.0916 0.7348 -0.6721
vn 0.2793 0.7286 -0.6255
vn -0.0583 -0.6215 -0.7812
vn -0.3204 -0.4664 -0.8245
vn 0.5932 0.5671 -0.5714
vn -0.4799 -0.1678 -0.8611
vn 0.8141 0.2321 -0.5324
vn 0.8277 -0.1524 -0.5401
vn -0.5117 0.1539 -0.8453
vn 0.6685 -0.4933 -0.5565
vn -0.3404 0.4252 -0.8386
vn 0.3561 -0.7072 -0.6107
vn -0.1232 0.6200 -0.7748
vn -0.5665 0.4736 -0.6743
vn -0.4090 -0.6429 -0.6476
vn -0.1070 -0.7071 0.6990
vn 0.4834 -0.5773 0.6580
vn 0.4954 -0.1618 0.8535
vn -0.5015 0.4124 0.7605
vn -0.5333 0.5857 0.6103
vn 0.0596 -0.5848 0.8090
vn 0.0795 0.7286 0.6803
vn -0.7409 0.1539 0.6538
vn -0.3491 0.6200 0.7026
vn -0.7422 0.4736 0.4742
vn 0.6580 -0.5773 -0.4834
vn 0.7279 -0.1618 -0.6664
vn 0.5999 -0.4311 -0.6739
vn 0.2986 -0.5849 -0.7541
vn -0.0915 0.7347 -0.6722
vn 0.2793 0.7286 -0.6254
vn -0.3203 -0.4664 -0.8245
vn -0.4798 -0.1678 -0.8612
vn 0.8141 0.2321 -0.5323
vn 0.8276 -0.1524 -0.5401
vn 0.6685 -0.4933 -0.5566
vn -0.3404 0.4253 -0.8386
vn 0.3561 -0.7073 -0.6107
vn -0.1231 0.6200 -0.7749
# 81 vertex normals

vt 0.2167 0.3874 0.0000
vt 0.0086 0.3878 0.0000
vt 0.0456 0.4939 0.0000
vt 0.1857 0.4937 0.0000
vt 0.1518 0.0148 0.0000
vt 0.0527 0.0150 0.0000
vt 0.1814 0.5063 0.0000
vt 0.2182 0.6125 0.0000
vt 0.0101 0.6125 0.0000
vt 0.0413 0.5063 0.0000
vt 0.1735 0.9853 0.0000
vt 0.0744 0.9853 0.0000
vt 0.9815 0.6443 0.0000
vt 0.9492 0.6452 0.0000
vt 0.9481 0.5588 0.0000
vt 0.9778 0.5582 0.0000
vt 0.9766 0.3772 0.0000
vt 0.9761 0.4565 0.0000
vt 0.9476 0.4566 0.0000
vt 0.9480 0.3769 0.0000
vt 0.9897 0.6441 0.0000
vt 0.9964 0.9416 0.0000
vt 0.9893 0.9481 0.0000
vt 0.9844 0.5581 0.0000
vt 0.9824 0.4565 0.0000
vt 0.9839 0.3774 0.0000
vt 0.9797 0.1205 0.0000
vt 0.9858 0.1207 0.0000
vt 0.9819 0.0463 0.0000
vt 0.9881 0.0520 0.0000
vt 0.9554 0.9490 0.0000
vt 0.9517 0.1200 0.0000
vt 0.9535 0.0453 0.0000
vt 0.9167 0.6454 0.0000
vt 0.9183 0.5587 0.0000
vt 0.9191 0.4565 0.0000
vt 0.9193 0.3767 0.0000
vt 0.9142 0.9437 0.0000
vt 0.9086 0.6455 0.0000
vt 0.9215 0.9499 0.0000
vt 0.9116 0.5588 0.0000
vt 0.9127 0.4565 0.0000
vt 0.9121 0.3767 0.0000
vt 0.9175 0.1194 0.0000
vt 0.9235 0.1194 0.0000
vt 0.9250 0.0446 0.0000
vt 0.9185 0.0500 0.0000
vt 0.8988 0.4008 0.0000
vt 0.8984 0.4890 0.0000
vt 0.8302 0.4887 0.0000
vt 0.8306 0.4005 0.0000
vt 0.9002 0.1028 0.0000
vt 0.8320 0.1025 0.0000
vt 0.9005 0.0244 0.0000
vt 0.8323 0.0241 0.0000
vt 0.8975 0.6881 0.0000
vt 0.8962 0.9861 0.0000
vt 0.8280 0.9858 0.0000
vt 0.8293 0.6878 0.0000
vt 0.8979 0.5999 0.0000
vt 0.8297 0.5996 0.0000
vt 0.6924 0.2883 0.0000
vt 0.7004 0.2883 0.0000
vt 0.7005 0.3365 0.0000
vt 0.6925 0.3383 0.0000
vt 0.7031 0.3411 0.0000
vt 0.6988 0.3440 0.0000
vt 0.7094 0.3458 0.0000
vt 0.7088 0.3499 0.0000
vt 0.7154 0.3456 0.0000
vt 0.7166 0.3497 0.0000
vt 0.7245 0.3457 0.0000
vt 0.7214 0.3422 0.0000
vt 0.7246 0.3371 0.0000
vt 0.7292 0.3388 0.0000
vt 0.7294 0.3298 0.0000
vt 0.7244 0.3304 0.0000
vt 0.7216 0.3246 0.0000
vt 0.7257 0.3218 0.0000
vt 0.7166 0.3216 0.0000
vt 0.7186 0.3171 0.0000
vt 0.7110 0.3205 0.0000
vt 0.7115 0.3163 0.0000
vt 0.8098 0.2910 0.0000
vt 0.8177 0.2915 0.0000
vt 0.8151 0.3414 0.0000
vt 0.8073 0.3392 0.0000
vt 0.8086 0.3468 0.0000
vt 0.8045 0.3436 0.0000
vt 0.7979 0.3480 0.0000
vt 0.7983 0.3522 0.0000
vt 0.7905 0.3516 0.0000
vt 0.7919 0.3475 0.0000
vt 0.7861 0.3438 0.0000
vt 0.7828 0.3472 0.0000
vt 0.7831 0.3386 0.0000
vt 0.7785 0.3400 0.0000
vt 0.7787 0.3310 0.0000
vt 0.7836 0.3319 0.0000
vt 0.7828 0.3232 0.0000
vt 0.7868 0.3263 0.0000
vt 0.7901 0.3189 0.0000
vt 0.7919 0.3236 0.0000
vt 0.7976 0.3227 0.0000
vt 0.7972 0.3184 0.0000
vt 0.7328 0.1961 0.0000
vt 0.7330 0.1881 0.0000
vt 0.7823 0.1894 0.0000
vt 0.7821 0.1973 0.0000
vt 0.7808 0.2455 0.0000
vt 0.7316 0.2443 0.0000
vt 0.7807 0.2508 0.0000
vt 0.7315 0.2495 0.0000
vt 0.7775 0.3767 0.0000
vt 0.7773 0.3852 0.0000
vt 0.7281 0.3840 0.0000
vt 0.7283 0.3754 0.0000
vt 0.7805 0.2587 0.0000
vt 0.7313 0.2575 0.0000
vt 0.7286 0.3638 0.0000
vt 0.7778 0.3651 0.0000
vt 0.7804 0.2647 0.0000
vt 0.7311 0.2634 0.0000
vt 0.7288 0.3560 0.0000
vt 0.7780 0.3573 0.0000
vt 0.7802 0.2716 0.0000
vt 0.7309 0.2703 0.0000
vt 0.7290 0.3471 0.0000
vt 0.7782 0.3484 0.0000
vt 0.7308 0.2763 0.0000
vt 0.7800 0.2776 0.0000
vt 0.7799 0.2843 0.0000
vt 0.7306 0.2830 0.0000
vt 0.7797 0.2907 0.0000
vt 0.7305 0.2895 0.0000
vt 0.7789 0.3222 0.0000
vt 0.7297 0.3210 0.0000
vt 0.7303 0.2953 0.0000
vt 0.7796 0.2965 0.0000
vt 0.7299 0.3124 0.0000
vt 0.7791 0.3137 0.0000
vt 0.7794 0.3023 0.0000
vt 0.7302 0.3010 0.0000
vt 0.7793 0.3066 0.0000
vt 0.7301 0.3053 0.0000
# 145 texture coords

g Object029
usemtl Coffin
s off
f 1/1/1 2/2/1 3/3/1 4/4/1 
s 4
f 2/2/1 1/1/1 5/5/1 6/6/1 
s off
f 7/7/2 8/8/2 9/9/2 10/10/2 
s 4
f 9/9/2 8/8/2 11/11/2 12/12/2 
s off
f 13/13/3 14/14/3 15/15/3 16/16/3 
f 17/17/4 18/18/4 19/19/4 20/20/4 
f 13/13/1 21/21/1 22/22/1 23/23/1 
f 13/13/1 16/16/1 24/24/1 21/21/1 
f 24/24/1 16/16/1 18/18/1 25/25/1 
f 17/17/1 26/26/1 25/25/1 18/18/1 
f 17/17/1 27/27/1 28/28/1 26/26/1 
f 28/28/1 27/27/1 23/29/1 22/30/1 
s 16
f 14/14/5 13/13/5 23/23/5 29/31/5 
s 32
f 19/19/6 18/18/6 16/16/6 15/15/6 
s 16
f 30/32/7 27/27/7 17/17/7 20/20/7 
s 8
f 29/33/8 23/29/8 27/27/8 30/32/8 
s off
f 15/15/3 14/14/3 31/34/3 32/35/3 
f 19/19/4 33/36/4 34/37/4 20/20/4 
f 35/38/2 36/39/2 31/34/2 37/40/2 
f 31/34/2 36/39/2 38/41/2 32/35/2 
f 33/36/2 32/35/2 38/41/2 39/42/2 
f 39/42/2 40/43/2 34/37/2 33/36/2 
f 34/37/2 40/43/2 41/44/2 42/45/2 
f 37/46/2 42/45/2 41/44/2 35/47/2 
s 16
f 37/40/5 31/34/5 14/14/5 29/31/5 
s 32
f 32/35/6 33/36/6 19/19/6 15/15/6 
s 16
f 34/37/7 42/45/7 30/32/7 20/20/7 
s 8
f 42/45/8 37/46/8 29/33/8 30/32/8 
s 1
f 40/48/9 39/49/9 25/50/9 26/51/9 
s 2
f 41/52/10 40/48/10 26/51/10 28/53/10 
s 4
f 35/54/6 41/52/6 28/53/6 22/55/6 
s 2
f 36/56/11 35/57/12 22/58/12 21/59/11 
f 38/60/13 36/56/11 21/59/11 24/61/13 
s 4
f 39/49/8 38/60/8 24/61/8 25/50/8 
s 1
f 43/62/14 44/63/15 45/64/16 46/65/17 
f 45/64/16 47/66/18 48/67/19 46/65/17 
f 48/67/19 47/66/18 49/68/20 50/69/21 
f 51/70/22 52/71/23 50/69/21 49/68/20 
f 53/72/24 52/71/23 51/70/22 54/73/25 
f 53/72/24 54/73/25 55/74/26 56/75/27 
f 57/76/28 56/75/27 55/74/26 58/77/29 
f 58/77/29 59/78/30 60/79/31 57/76/28 
f 60/79/31 59/78/30 61/80/32 62/81/33 
f 62/81/33 61/80/32 63/82/34 64/83/35 
f 65/84/36 66/85/37 67/86/38 68/87/39 
f 68/87/39 67/86/38 69/88/40 70/89/41 
f 71/90/42 70/89/41 69/88/40 72/91/43 
f 72/91/43 73/92/44 74/93/45 71/90/42 
f 75/94/46 74/93/45 73/92/44 76/95/47 
f 77/96/48 75/94/46 76/95/47 78/97/49 
f 78/97/49 79/98/50 80/99/51 77/96/48 
f 81/100/52 82/101/53 80/99/51 79/98/50 
f 83/102/54 84/103/55 82/101/53 81/100/52 
f 85/104/56 84/103/55 83/102/54 86/105/57 
f 44/106/15 43/107/14 66/108/37 65/109/36 
f 44/106/15 65/109/36 68/110/39 45/111/16 
f 45/111/16 68/110/39 70/112/41 47/113/18 
f 69/114/40 67/115/38 46/116/17 48/117/19 
f 47/113/18 70/112/41 71/118/42 49/119/20 
f 48/117/19 50/120/21 72/121/43 69/114/40 
f 74/122/45 51/123/22 49/119/20 71/118/42 
f 72/121/43 50/120/21 52/124/23 73/125/44 
f 51/123/22 74/122/45 75/126/46 54/127/25 
f 73/125/44 52/124/23 53/128/24 76/129/47 
f 55/130/26 54/127/25 75/126/46 77/131/48 
f 76/129/47 53/128/24 56/75/27 78/97/49 
f 55/130/26 77/131/48 80/132/51 58/133/29 
f 56/75/27 57/76/28 79/98/50 78/97/49 
f 58/133/29 80/132/51 82/134/53 59/135/30 
f 81/136/52 79/98/50 57/76/28 60/137/31 
f 61/138/32 59/135/30 82/134/53 84/139/55 
f 81/136/52 60/137/31 62/140/33 83/141/54 
f 61/138/32 84/139/55 85/142/56 63/143/34 
f 86/144/57 64/145/35 63/143/34 85/142/56 
f 62/140/33 64/145/35 86/144/57 83/141/54 
f 87/62/58 88/63/59 89/64/60 90/65/61 
f 89/64/60 91/66/18 92/67/62 90/65/61 
f 92/67/62 91/66/18 93/68/63 94/69/21 
f 95/70/22 96/71/64 94/69/21 93/68/63 
f 97/72/24 96/71/64 95/70/22 98/73/25 
f 97/72/24 98/73/25 99/74/26 100/75/27 
f 101/76/28 100/75/27 99/74/26 102/77/65 
f 102/77/65 103/78/30 104/79/31 101/76/28 
f 104/79/31 103/78/30 105/80/66 106/81/33 
f 106/81/33 105/80/66 107/82/67 108/83/35 
f 109/84/68 110/85/37 111/86/38 112/87/69 
f 112/87/69 111/86/38 113/88/40 114/89/70 
f 115/90/71 114/89/70 113/88/40 116/91/72 
f 116/91/72 117/92/73 118/93/45 115/90/71 
f 119/94/74 118/93/45 117/92/73 120/95/47 
f 121/96/75 119/94/74 120/95/47 122/97/76 
f 122/97/76 123/98/77 124/99/51 121/96/75 
f 125/100/78 126/101/79 124/99/51 123/98/77 
f 127/102/80 128/103/81 126/101/79 125/100/78 
f 129/104/56 128/103/81 127/102/80 130/105/57 
f 88/106/59 87/107/58 110/108/37 109/109/68 
f 88/106/59 109/109/68 112/110/69 89/111/60 
f 89/111/60 112/110/69 114/112/70 91/113/18 
f 113/114/40 111/115/38 90/116/61 92/117/62 
f 91/113/18 114/112/70 115/118/71 93/119/63 
f 92/117/62 94/120/21 116/121/72 113/114/40 
f 118/122/45 95/123/22 93/119/63 115/118/71 
f 116/121/72 94/120/21 96/124/64 117/125/73 
f 95/123/22 118/122/45 119/126/74 98/127/25 
f 117/125/73 96/124/64 97/128/24 120/129/47 
f 99/130/26 98/127/25 119/126/74 121/131/75 
f 120/129/47 97/128/24 100/75/27 122/97/76 
f 99/130/26 121/131/75 124/132/51 102/133/65 
f 100/75/27 101/76/28 123/98/77 122/97/76 
f 102/133/65 124/132/51 126/134/79 103/135/30 
f 125/136/78 123/98/77 101/76/28 104/137/31 
f 105/138/66 103/135/30 126/134/79 128/139/81 
f 125/136/78 104/137/31 106/140/33 127/141/80 
f 105/138/66 128/139/81 129/142/56 107/143/67 
f 130/144/57 108/145/35 107/143/67 129/142/56 
f 106/140/33 108/145/35 130/144/57 127/141/80 
# 116 polygons

