# 3ds Max Wavefront OBJ Exporter v0.97b - (c)2007 guruware
# File Created: 09.11.2016 20:40:26

mtllib Book.mtl

#
# object Box001
#

v  -3.4259 -0.3178 9.1946
v  -3.4259 -0.3178 -3.6333
v  13.6404 -0.3178 -3.6333
v  13.6404 -0.3178 9.1946
v  -3.4259 2.5782 9.1946
v  13.6404 2.5782 9.1946
v  13.6404 2.5782 -3.6333
v  -3.4259 2.5782 -3.6333
v  13.6404 1.1302 9.1946
v  -3.4259 1.1302 9.1946
v  -3.4259 0.5595 9.1946
v  13.6404 0.5595 9.1946
v  13.6404 1.1302 -3.9117
v  13.6404 0.5595 -3.6333
v  -3.4259 1.1302 -4.3692
v  13.6404 1.1302 -4.3692
v  13.6404 0.5595 -4.2626
v  -3.4259 0.5595 -4.2626
v  -3.4259 1.1302 -3.9117
v  -3.4259 0.5595 -3.9117
v  -3.6506 0.0000 9.4193
v  -3.7437 0.0000 -3.6333
v  -3.7437 -0.1912 -3.6333
v  -3.6506 -0.1912 9.4193
v  -3.4259 0.0000 -3.9511
v  13.6404 0.0000 -3.9511
v  13.6404 -0.3178 -3.9511
v  -3.4259 -0.3178 -3.9511
v  13.9582 0.0000 -3.6333
v  13.8651 0.0000 9.4193
v  13.8651 -0.1912 9.4193
v  13.9582 -0.1912 -3.6333
v  -3.6506 2.2604 9.4193
v  13.8651 2.2604 9.4193
v  13.8651 2.4516 9.4193
v  -3.6506 2.4516 9.4193
v  13.9582 2.2604 -3.6333
v  13.9582 2.4516 -3.6333
v  13.6404 2.2604 -3.9511
v  -3.4259 2.2604 -3.9511
v  -3.4259 2.5782 -3.9511
v  13.6404 2.5782 -3.9511
v  -3.7437 2.2604 -3.6333
v  -3.7437 2.4516 -3.6333
v  -3.4259 0.0000 9.1946
v  -3.4259 0.0000 -3.9117
v  -3.6171 -0.3178 -3.9511
v  -3.7437 -0.1912 -3.9511
v  -3.7437 0.0000 -3.9511
v  -3.5611 -0.3178 9.3298
v  -3.6171 -0.3178 -3.6333
v  13.7756 -0.3178 9.3298
v  13.8316 -0.3178 -3.6333
v  13.9582 0.0000 -3.9511
v  13.8316 -0.3178 -3.9511
v  13.9582 -0.1912 -3.9511
v  13.6404 0.0000 -3.9117
v  13.6404 0.0000 9.1946
v  -3.4259 2.2604 9.1946
v  13.6404 2.2604 9.1946
v  13.6404 2.2604 -3.9117
v  13.8316 2.5782 -3.9511
v  13.9582 2.4516 -3.9511
v  13.9582 2.2604 -3.9511
v  13.7756 2.5782 9.3298
v  13.8316 2.5782 -3.6333
v  -3.5611 2.5782 9.3298
v  -3.6171 2.5782 -3.6333
v  -3.7437 2.2604 -3.9511
v  -3.6171 2.5782 -3.9511
v  -3.7437 2.4516 -3.9511
v  -3.4259 2.2604 -3.9117
v  -3.4259 1.7010 9.1946
v  13.6404 1.7010 9.1946
v  13.6404 1.7010 -3.9117
v  13.6404 1.7010 -4.2626
v  -3.4259 1.7010 -4.2626
v  -3.4259 1.7010 -3.9117
v  -3.7437 1.1302 -4.3692
v  -3.7437 1.7010 -4.2626
v  -3.7437 1.1302 -4.0514
v  -3.7437 1.7010 -3.9448
v  13.9582 1.1302 -4.3692
v  13.9582 1.7010 -4.2626
v  13.9582 1.1302 -4.0514
v  13.9582 1.7010 -3.9448
v  -3.7437 0.5595 -4.2626
v  -3.7437 0.5595 -3.9448
v  13.9582 0.5595 -4.2626
v  13.9582 0.5595 -3.9448
v  13.6404 0.5595 -3.9117
# 91 vertices

vn 0.0000 -1.0000 -0.0000
vn 0.0000 1.0000 -0.0000
vn 0.0000 0.0000 1.0000
vn 1.0000 0.0000 -0.0000
vn 0.0000 -0.0000 -1.0000
vn -0.0000 -0.0000 -1.0000
vn 0.0000 -0.3394 -0.9406
vn -0.0000 -0.3394 -0.9406
vn -1.0000 0.0000 -0.0000
vn -1.0000 0.0000 0.0071
vn -1.0000 0.0000 0.0027
vn -1.0000 0.0000 0.0036
vn -0.0000 -0.2512 -0.9679
vn 0.0000 -0.2512 -0.9679
vn 0.0000 0.0000 -1.0000
vn 1.0000 0.0000 0.0027
vn 1.0000 0.0000 0.0071
vn 1.0000 0.0000 0.0036
vn -0.0000 0.2512 -0.9679
vn 0.0000 0.2512 -0.9679
vn 0.0000 -1.0000 0.0000
vn -0.0000 -1.0000 0.0000
vn 1.0000 -0.0000 -0.0000
vn -0.0000 0.3394 -0.9406
vn 0.0000 0.3394 -0.9406
vn 0.3557 -0.0584 0.9328
vn 0.3552 -0.0542 0.9332
vn 0.2074 -0.0589 0.9765
vn 0.1035 0.0000 0.9946
vn -0.4313 0.2954 0.8525
vn -0.6078 0.3862 0.6939
vn -0.1911 0.1657 0.9675
vn 0.2074 0.1220 0.9706
vn 0.1017 0.1827 0.9779
vn -0.4479 -0.1812 0.8755
vn -0.6589 0.0000 0.7522
vn -0.1990 -0.3436 0.9178
vn 0.0905 -0.4844 0.8702
vn 0.4479 -0.1812 0.8755
vn -0.0905 -0.4844 0.8702
vn 0.1990 -0.3436 0.9178
vn 0.6589 0.0000 0.7522
vn -0.2074 -0.0589 0.9765
vn -0.4024 0.0000 0.9155
vn -0.3092 -0.0000 0.9510
vn -0.1035 0.0000 0.9946
vn -0.2074 0.0589 0.9765
vn 0.4479 0.1812 0.8755
vn 0.1990 0.3436 0.9178
vn -0.0905 0.4844 0.8702
vn -0.7076 -0.7067 0.0015
vn -0.7071 -0.7071 0.0015
vn -0.8139 -0.5810 0.0058
vn -0.8145 -0.5801 0.0058
vn 0.0000 -0.5773 0.8165
vn 0.8141 -0.5808 0.0035
vn 0.8153 -0.5790 0.0035
vn 0.7076 -0.7067 0.0025
vn 0.7071 -0.7071 0.0025
vn 0.7076 0.7067 0.0015
vn 0.7071 0.7071 0.0015
vn 0.8139 0.5810 0.0058
vn 0.8145 0.5801 0.0058
vn 0.0000 0.5773 0.8165
vn -0.8141 0.5808 0.0035
vn -0.8153 0.5790 0.0035
vn -0.7076 0.7067 0.0025
vn -0.7071 0.7071 0.0025
vn 0.7071 -0.7071 -0.0000
vn -0.7071 -0.7071 -0.0000
vn -0.7071 0.7071 -0.0000
vn 0.7071 0.7071 -0.0000
# 72 vertex normals

vt 1.0000 0.0000 0.0000
vt 1.0000 1.0000 0.0000
vt 0.0000 1.0000 0.0000
vt 0.0000 0.0000 0.0000
vt 1.0000 0.5000 0.0000
vt 0.0000 0.5000 0.0000
vt 0.0000 0.2475 0.0000
vt 1.0000 0.2475 0.0000
vt 0.0000 0.7525 0.0000
vt 1.0000 0.7525 0.0000
vt 0.5000 1.0000 0.0000
vt 0.7525 1.0000 0.0000
vt 0.5000 0.0000 0.0000
vt 0.7525 0.0000 0.0000
vt 0.2475 1.0000 0.0000
vt 0.2475 0.0000 0.0000
# 16 texture coords

g Box001
usemtl wire_229154215
s 1
f 1/1/1 2/2/1 3/3/1 4/4/1 
f 5/4/2 6/1/2 7/2/2 8/3/2 
f 9/5/3 10/6/3 11/7/3 12/8/3 
s 2
f 13/5/4 9/6/4 12/7/4 14/8/4 
f 15/5/5 16/6/6 17/7/7 18/8/8 
f 10/5/9 19/6/9 20/7/9 11/8/9 
s 1
f 21/1/10 22/2/11 23/2/12 24/1/10 
s 2
f 25/2/13 26/3/14 27/3/15 28/2/15 
s 1
f 29/3/16 30/4/17 31/4/17 32/3/18 
s 2
f 30/4/3 21/1/3 24/1/3 31/4/3 
f 33/4/3 34/1/3 35/1/3 36/4/3 
s 1
f 34/1/17 37/2/16 38/2/18 35/1/17 
s 2
f 39/2/19 40/3/20 41/3/15 42/2/15 
s 1
f 43/3/11 33/4/10 36/4/10 44/3/12 
s 4
f 45/1/2 46/2/2 22/2/2 21/1/2 
s 2
f 28/2/15 47/2/15 48/2/15 25/2/13 
f 25/2/13 48/2/15 49/2/14 
s 1
f 2/2/1 1/1/1 50/1/1 51/2/1 
f 1/1/1 4/4/1 52/4/1 50/1/1 
f 4/4/1 3/3/1 53/3/1 52/4/1 
s 2
f 27/3/15 26/3/14 54/3/14 55/3/15 
f 54/3/14 56/3/15 55/3/15 
s 4
f 57/3/2 58/4/2 30/4/2 29/3/2 
f 58/4/2 45/1/2 21/1/2 30/4/2 
f 59/4/21 60/1/22 34/1/22 33/4/21 
f 60/1/22 61/2/22 37/2/22 34/1/22 
s 2
f 42/2/15 62/2/15 63/2/15 39/2/19 
f 39/2/19 63/2/15 64/2/19 
s 1
f 7/2/2 6/1/2 65/1/2 66/2/2 
f 6/1/2 5/4/2 67/4/2 65/1/2 
f 5/4/2 8/3/2 68/3/2 67/4/2 
s 2
f 41/3/15 40/3/20 69/3/20 70/3/15 
f 69/3/20 71/3/15 70/3/15 
s 4
f 72/3/21 59/4/21 33/4/21 43/3/21 
s 1
f 29/3/16 32/3/18 56/3/4 54/3/4 
f 53/3/1 3/3/1 27/3/1 55/3/1 
f 3/3/1 2/2/1 28/2/1 27/3/1 
f 2/2/1 51/2/1 47/2/1 28/2/1 
f 23/2/12 22/2/11 49/2/9 48/2/9 
f 43/3/11 44/3/12 71/3/9 69/3/9 
f 68/3/2 8/3/2 41/3/2 70/3/2 
f 8/3/2 7/2/2 42/2/2 41/3/2 
f 7/2/2 66/2/2 62/2/2 42/2/2 
f 38/2/18 37/2/16 64/2/4 63/2/4 
f 60/2/3 59/3/3 73/9/3 74/10/3 
f 74/10/3 73/9/3 10/6/3 9/5/3 
f 45/4/3 58/1/3 12/8/3 11/7/3 
s 2
f 61/2/4 60/3/4 74/9/4 75/10/4 
f 75/10/4 74/9/4 9/6/4 13/5/4 
f 58/4/23 57/1/23 14/8/4 12/7/4 
f 40/2/20 39/3/19 76/9/24 77/10/25 
f 77/10/25 76/9/24 16/6/6 15/5/5 
f 26/4/14 25/1/13 18/8/8 17/7/7 
f 59/2/9 72/3/9 78/9/9 73/10/9 
f 73/10/9 78/9/9 19/6/9 10/5/9 
f 46/4/9 45/1/9 11/8/9 20/7/9 
f 15/2/5 79/1/6 80/1/25 77/2/25 
s 1
f 79/1/9 81/11/9 82/12/9 80/1/9 
s 2
f 83/6/5 16/13/5 76/14/25 84/7/24 
s 1
f 85/5/4 83/6/4 84/7/4 86/8/4 
s 2
f 13/11/26 85/5/27 86/8/28 75/12/29 
f 25/2/13 49/1/14 87/1/8 18/2/8 
f 18/2/8 87/1/8 79/1/6 15/2/5 
f 69/1/20 40/2/20 77/2/25 80/1/25 
s 1
f 49/1/9 22/3/11 88/15/9 87/1/9 
f 87/1/9 88/15/9 81/11/9 79/1/9 
f 43/2/11 69/1/9 80/1/9 82/12/9 
s 2
f 54/3/14 26/4/14 17/16/7 89/9/7 
f 89/9/7 17/16/7 16/13/5 83/6/5 
f 39/1/19 64/4/19 84/7/24 76/14/25 
s 1
f 29/2/16 54/3/4 89/9/4 90/10/4 
f 90/10/4 89/9/4 83/6/4 85/5/4 
f 64/4/4 37/1/16 86/8/4 84/7/4 
s 8
f 57/3/30 29/2/31 90/10/32 91/15/29 
s 2
f 91/15/33 90/10/34 85/5/27 13/11/26 
s 8
f 37/1/35 61/2/36 75/12/37 86/8/38 
f 43/2/39 82/9/40 78/3/41 72/3/42 
s 4
f 82/9/43 81/9/44 19/3/45 78/3/46 
f 88/6/47 20/2/46 19/3/45 81/9/44 
s 8
f 22/4/48 46/2/42 20/2/49 88/6/50 
s 4
f 23/2/51 51/2/52 50/1/53 24/1/54 
s 8
f 24/1/55 50/1/55 52/4/55 31/4/55 
s 4
f 31/4/56 52/4/57 53/3/58 32/3/59 
f 38/2/60 66/2/61 65/1/62 35/1/63 
s 8
f 35/1/64 65/1/64 67/4/64 36/4/64 
s 4
f 36/4/65 67/4/66 68/3/67 44/3/68 
f 32/3/59 53/3/58 55/3/69 56/3/69 
f 51/2/52 23/2/51 48/2/70 47/2/70 
f 44/3/68 68/3/67 70/3/71 71/3/71 
f 66/2/61 38/2/60 63/2/72 62/2/72 
# 86 polygons - 4 triangles

