# 3ds Max Wavefront OBJ Exporter v0.97b - (c)2007 guruware
# File Created: 09.11.2016 22:09:08

mtllib BookLP.mtl

#
# object Box001
#

v  -3.4259 -0.3178 9.1946
v  -3.4259 -0.3178 -3.6333
v  13.6404 -0.3178 -3.6333
v  13.6404 -0.3178 9.1946
v  -3.4259 2.5782 9.1946
v  13.6404 2.5782 9.1946
v  13.6404 2.5782 -3.6333
v  -3.4259 2.5782 -3.6333
v  13.6404 1.1302 9.1946
v  -3.4259 1.1302 9.1946
v  -3.4259 0.0000 9.1946
v  13.6404 0.0000 9.1946
v  13.6404 0.0000 -3.6333
v  13.6404 1.1302 -3.9117
v  -3.4259 1.1302 -3.9117
v  -3.4259 0.0000 -3.6333
v  -3.6506 0.0000 9.4193
v  -3.7437 0.0000 -3.6333
v  -3.4259 0.0000 -3.9511
v  13.6404 0.0000 -3.9511
v  13.6404 -0.3178 -3.9511
v  -3.4259 -0.3178 -3.9511
v  13.9582 0.0000 -3.6333
v  13.8651 0.0000 9.4193
v  -3.6506 2.2604 9.4193
v  13.8651 2.2604 9.4193
v  13.9582 2.2604 -3.6333
v  13.6404 2.2604 -3.9511
v  -3.4259 2.2604 -3.9511
v  -3.4259 2.5782 -3.9511
v  13.6404 2.5782 -3.9511
v  -3.7437 2.2604 -3.6333
v  -3.7437 0.0000 -3.9511
v  13.9582 0.0000 -3.9511
v  -3.4259 2.2604 9.1946
v  13.6404 2.2604 9.1946
v  13.6404 2.2604 -3.9117
v  13.9582 2.2604 -3.9511
v  -3.7437 2.2604 -3.9511
v  -3.4259 2.2604 -3.9117
v  -3.4259 1.1302 -4.3692
v  13.6404 1.1302 -4.3692
v  -3.7437 1.1302 -4.3692
v  -3.7437 1.1302 -4.0514
v  13.9582 1.1302 -4.3692
v  13.9582 1.1302 -4.0514
# 46 vertices

vn -0.3666 -0.8551 0.3666
vn -0.3834 -0.9236 0.0013
vn 0.3827 -0.9239 -0.0000
vn 0.3641 -0.8554 0.3683
vn -0.3641 0.8554 0.3683
vn 0.3666 0.8551 0.3666
vn 0.3834 0.9236 0.0013
vn -0.3827 0.9239 -0.0000
vn 0.0000 0.0000 1.0000
vn 1.0000 -0.0000 -0.0000
vn 1.0000 0.0000 -0.0000
vn 0.7746 0.2084 0.5972
vn 0.8175 0.0716 0.5715
vn -1.0000 -0.0000 -0.0000
vn -1.0000 0.0000 -0.0000
vn -0.6774 0.2865 0.6775
vn -0.9167 -0.0646 0.3944
vn 0.0000 -0.1173 -0.9931
vn 0.0000 0.0000 -1.0000
vn 0.9826 -0.1860 0.0001
vn 0.6755 0.2867 0.6793
vn -0.6755 -0.2867 0.6793
vn 0.6774 -0.2865 0.6775
vn 0.9998 -0.0190 0.0023
vn -0.0000 0.1762 -0.9844
vn 0.0000 0.1762 -0.9844
vn -0.9252 -0.1530 0.3474
vn 0.0000 1.0000 -0.0000
vn 0.0000 0.7871 0.6168
vn 0.0000 -0.2345 -0.9721
vn 0.0000 -1.0000 0.0000
vn -0.0000 -1.0000 0.0000
vn -0.0000 0.2345 -0.9721
vn 0.0000 0.2345 -0.9721
vn 0.4032 -0.6261 0.6674
vn 0.9391 -0.3436 -0.0000
vn -0.3827 -0.9239 -0.0000
vn -0.9391 -0.3436 -0.0000
vn -0.9391 0.3436 -0.0000
vn 0.3827 0.9239 -0.0000
vn 0.9391 0.3436 -0.0000
vn 0.4895 -0.2456 0.8367
vn 0.0000 0.1224 -0.9925
vn 0.0000 0.3469 -0.9379
vn 0.0000 -0.0000 -1.0000
vn -0.0000 0.0000 -1.0000
vn 0.2654 0.0903 0.9599
vn -0.6348 -0.2681 0.7247
vn 0.0000 0.3469 0.9379
vn -0.2956 0.1292 0.9465
vn -0.3670 0.1625 0.9159
vn 0.0000 -0.3469 -0.9379
# 52 vertex normals

vt 0.1072 0.4230 0.0000
vt 0.1036 0.0354 0.0000
vt 0.6194 0.0307 0.0000
vt 0.6227 0.4185 0.0000
vt 0.1013 0.5116 0.0000
vt 0.6165 0.5078 0.0000
vt 0.6194 0.8953 0.0000
vt 0.1040 0.8989 0.0000
vt 0.6255 0.4631 0.0000
vt 0.0984 0.4674 0.0000
vt 0.0981 0.4324 0.0000
vt 0.6252 0.4280 0.0000
vt 0.6734 0.4213 0.0000
vt 0.6390 0.4210 0.0000
vt 0.6428 0.0308 0.0000
vt 0.6771 0.0225 0.0000
vt 0.0504 0.5088 0.0000
vt 0.0462 0.9090 0.0000
vt 0.0117 0.9003 0.0000
vt 0.0159 0.5084 0.0000
vt 0.0980 0.4324 0.0000
vt 0.0899 0.0356 0.0000
vt 0.1030 0.9871 0.0000
vt 0.6194 0.9882 0.0000
vt 0.6193 0.9980 0.0000
vt 0.1028 0.9968 0.0000
vt 0.6331 0.0306 0.0000
vt 0.6321 0.4278 0.0000
vt 0.0919 0.5023 0.0000
vt 0.6257 0.4983 0.0000
vt 0.6331 0.8952 0.0000
vt 0.6195 0.9149 0.0000
vt 0.1037 0.9149 0.0000
vt 0.1051 0.9070 0.0000
vt 0.6195 0.9051 0.0000
vt 0.0905 0.9011 0.0000
vt 0.0020 0.9002 0.0000
vt 0.0091 0.5014 0.0000
vt 0.0929 0.9867 0.0000
vt 0.6291 0.9883 0.0000
vt 0.0987 0.5023 0.0000
vt 0.6258 0.4982 0.0000
vt 0.7077 0.4216 0.0000
vt 0.7113 0.0230 0.0000
vt 0.7209 0.0316 0.0000
vt 0.7145 0.4285 0.0000
vt 0.6292 0.9149 0.0000
vt 0.0936 0.9128 0.0000
vt 0.0807 0.9095 0.0000
vt 0.0850 0.5091 0.0000
vt 0.6193 0.0210 0.0000
vt 0.6331 0.0209 0.0000
vt 0.1035 0.0258 0.0000
vt 0.0898 0.0260 0.0000
vt 0.6332 0.9049 0.0000
vt 0.1037 0.9509 0.0000
vt 0.6194 0.9515 0.0000
vt 0.0947 0.9506 0.0000
vt 0.0854 0.9505 0.0000
vt 0.0835 0.9101 0.0000
vt 0.6291 0.9516 0.0000
vt 0.6194 0.9516 0.0000
vt 0.6764 0.0116 0.0000
vt 0.6750 0.0021 0.0000
vt 0.7101 0.0020 0.0000
vt 0.7137 0.0106 0.0000
vt 0.0831 0.9891 0.0000
vt 0.6405 0.0217 0.0000
vt 0.6411 0.0123 0.0000
vt 0.0454 0.9195 0.0000
vt 0.0826 0.9225 0.0000
vt 0.0093 0.9098 0.0000
# 72 texture coords

g Box001
usemtl Material__25
s 1
f 1/1/1 2/2/2 3/3/3 4/4/4 
f 5/5/5 6/6/6 7/7/7 8/8/8 
f 9/9/9 10/10/9 11/11/9 12/12/9 
s 2
f 9/13/10 12/14/11 13/15/12 14/16/13 
f 10/17/14 15/18/14 16/19/14 11/20/15 
s 5
f 17/21/16 18/22/17 2/2/2 1/1/1 
s 2
f 19/23/18 20/24/18 21/25/19 22/26/19 
s 5
f 23/27/20 24/28/21 4/4/4 3/3/3 
s 11
f 24/28/21 17/21/16 1/1/1 4/4/4 
f 25/29/22 26/30/23 6/6/6 5/5/5 
s 5
f 26/30/23 27/31/24 7/7/7 6/6/6 
s 2
f 28/32/25 29/33/26 30/34/19 31/35/19 
s 5
f 32/36/27 25/29/22 5/5/5 8/8/8 
s 4
f 11/20/28 16/19/29 18/37/17 17/38/16 
s 2
f 19/23/18 22/26/19 33/39/30 
f 21/25/19 20/24/18 34/40/30 
s 4
f 13/15/28 12/14/28 24/28/21 23/27/20 
f 12/12/28 11/11/28 17/21/16 24/28/21 
f 35/41/31 36/42/32 26/30/23 25/29/22 
f 36/43/32 37/44/32 27/45/24 26/46/23 
s 2
f 28/32/25 31/35/19 38/47/33 
f 30/34/19 29/33/26 39/48/34 
s 4
f 40/49/35 35/50/31 25/29/22 32/36/27 
s 5
f 23/27/20 3/3/3 21/51/3 34/52/36 
s 1
f 3/3/3 2/2/2 22/53/37 21/51/3 
s 5
f 2/2/2 18/22/17 33/54/38 22/53/37 
f 32/36/27 8/8/8 30/34/8 39/48/39 
s 1
f 8/8/8 7/7/7 31/35/40 30/34/8 
s 5
f 7/7/7 27/31/24 38/55/41 31/35/40 
s 1
f 36/42/9 35/41/9 10/10/9 9/9/9 
s 2
f 37/44/42 36/43/11 9/13/10 14/16/13 
f 41/56/43 29/33/26 28/32/25 42/57/44 
f 10/17/14 35/50/15 40/49/15 15/18/14 
f 41/56/43 43/58/45 39/48/34 29/33/26 
s 1
f 43/58/15 44/59/15 32/60/27 39/48/39 
s 2
f 45/61/46 42/62/19 28/32/25 38/47/33 
s 1
f 46/63/11 45/64/11 38/65/41 27/66/24 
s 10
f 46/63/47 27/66/48 37/44/42 14/16/13 
s 2
f 19/23/18 33/39/30 43/58/45 41/56/43 
s 1
f 43/58/15 33/39/38 18/67/17 44/59/15 
s 2
f 45/61/46 34/40/30 20/24/18 42/62/19 
s 1
f 23/68/20 34/69/36 45/64/11 46/63/11 
s 10
f 13/15/12 23/68/49 46/63/47 14/16/13 
s 12
f 44/70/50 15/18/51 40/49/35 32/71/27 
s 4
f 18/72/17 16/19/29 15/18/51 44/70/50 
s 1
f 42/57/11 28/32/11 42/62/52 41/56/52 
f 41/56/52 42/62/52 20/24/52 19/23/52 
# 43 polygons - 4 triangles

