# 3ds Max Wavefront OBJ Exporter v0.97b - (c)2007 guruware
# File Created: 09.11.2016 20:06:57

mtllib TallPumpkinLP.mtl

#
# object Group40502
#

v  1.7791 21.4167 1.6905
v  2.8053 21.4536 0.1298
v  1.2550 21.4405 0.0346
v  0.8377 21.4853 0.8490
v  0.2301 20.9814 0.0841
v  -0.2124 21.3539 1.0591
v  -0.2093 21.3004 2.4078
v  -4.9296 0.4536 -2.2559
v  -2.7097 -0.8605 -0.5834
v  -5.2811 0.2061 1.4433
v  0.5778 21.4251 -1.2293
v  -0.5847 21.3698 -1.3837
v  -0.1835 21.0365 -0.6234
v  1.2910 21.4592 -0.4381
v  0.3627 21.0215 -0.2250
v  -0.5811 20.9302 -0.2488
v  -3.2370 21.3630 0.5045
v  -2.0625 21.4872 -0.2098
v  -3.1232 21.3838 -0.9408
v  0.2208 1.6428 5.5666
v  0.1345 4.4538 6.5471
v  -3.9595 4.1930 5.1241
v  -2.6325 0.6620 4.2225
v  3.5927 0.8869 3.8790
v  4.5716 4.5765 4.8521
v  0.7358 -0.5999 1.9441
v  6.2718 2.5827 -1.9917
v  4.2679 0.7132 -3.0736
v  4.3953 3.5275 -5.1412
v  1.4949 0.4225 -4.5983
v  0.4134 2.4335 -6.2686
v  0.3426 -0.2223 -3.7423
v  -1.6414 1.4661 -5.4346
v  3.4733 -0.3556 -1.3859
v  -6.6474 3.9726 -2.4617
v  -3.1265 4.9000 -6.0438
v  -0.6605 5.5951 -6.8713
v  4.2292 6.4569 -5.9677
v  7.0751 5.8920 -1.7897
v  7.0025 5.2895 0.7219
v  6.0814 1.7246 0.0973
v  -6.8116 3.9102 1.7880
v  -7.2912 8.2368 -2.6462
v  -3.6942 8.5126 -6.1843
v  -1.0889 8.8598 -7.0612
v  4.1356 9.3376 -6.1240
v  7.3224 9.0509 -1.8619
v  7.4066 8.6885 0.7975
v  4.8720 8.3368 5.2929
v  0.1228 8.3599 7.0612
v  -4.2745 8.2701 5.6295
v  -7.4066 8.2200 1.8611
v  -7.2201 12.2033 1.7798
v  -7.0690 12.2143 -2.6450
v  -3.6074 12.1021 -6.0167
v  -3.7101 10.3361 -6.1272
v  -1.1477 12.1996 -6.8640
v  3.9375 12.4343 -5.9453
v  7.1301 12.3037 -1.8423
v  7.2819 12.1382 0.7297
v  4.7936 11.9937 5.1379
v  0.1354 12.0668 6.9019
v  -4.2072 12.0615 5.5220
v  -6.5965 15.4086 1.5949
v  -6.3900 15.4455 -2.4942
v  -3.2453 15.4485 -5.4836
v  -1.0538 15.4723 -6.1844
v  3.5171 15.5926 -5.3623
v  6.4232 15.5643 -1.7012
v  6.5855 15.4703 0.6053
v  4.3647 15.3663 4.5802
v  0.1754 15.4022 6.1773
v  -3.9540 15.3428 4.9603
v  -3.3739 18.5177 3.7791
v  -5.4102 18.5064 1.1775
v  -5.2362 18.5254 -1.9988
v  -2.7033 18.5583 -4.3085
v  -0.9237 18.5578 -4.8801
v  2.8111 18.6673 -4.1878
v  5.1083 18.6648 -1.3558
v  5.2410 18.6096 0.4434
v  3.4514 18.5778 3.4872
v  0.0475 18.5060 4.8101
v  -2.5751 20.8082 2.3409
v  -3.9564 20.7814 0.6991
v  -3.7710 20.8453 -1.2543
v  -2.0654 20.8390 -2.7996
v  -0.7886 20.8326 -3.2228
v  1.8854 20.8685 -2.7850
v  3.4883 20.9065 -0.9358
v  3.5596 20.9050 0.2047
v  2.2659 20.9425 2.1632
v  -0.1401 20.8762 3.0219
v  -2.2131 21.2716 1.8484
v  -1.3780 21.3347 0.7550
v  -1.1918 21.3719 -1.1441
v  -1.7826 21.2859 -2.2828
v  -0.7235 21.2433 -2.6520
v  1.4742 21.3155 -2.2713
v  2.7678 21.4281 -0.7521
v  -0.8457 23.4913 -0.1031
v  -0.1386 23.4913 -0.1031
v  -0.1386 23.4913 -0.8102
v  -0.8457 23.4913 -0.8102
v  0.7598 21.0987 0.8941
v  0.7598 21.7121 0.8941
v  -1.2516 21.7121 0.8941
v  -1.2516 21.0987 0.8941
v  0.7598 21.0987 -1.1174
v  0.7598 21.7121 -1.1174
v  -1.2516 21.0987 -1.1174
v  -1.2516 21.7121 -1.1174
v  0.3764 22.8208 0.2631
v  -0.6692 22.8208 0.2631
v  0.3764 22.8208 -0.7825
v  -0.6692 22.8208 -0.7825
# 116 vertices

vn 0.2080 0.9265 0.3136
vn 0.3528 0.9300 0.1031
vn -0.1675 0.9833 -0.0708
vn -0.1279 0.9867 -0.0998
vn -0.1864 0.9678 -0.1690
vn -0.0559 0.9913 -0.1193
vn -0.0233 0.9174 0.3972
vn -0.6389 -0.6540 -0.4051
vn -0.1995 -0.9769 -0.0772
vn -0.6596 -0.7014 0.2700
vn -0.1002 0.9913 0.0856
vn 0.0094 0.9930 0.1176
vn -0.0785 0.9453 0.3167
vn -0.1381 0.9902 0.0221
vn -0.2981 0.9434 0.1453
vn 0.1419 0.9896 0.0245
vn -0.3852 0.9104 0.1510
vn 0.0843 0.9963 0.0176
vn -0.3625 0.9135 -0.1849
vn 0.0418 -0.5401 0.8406
vn 0.0228 -0.2269 0.9736
vn -0.5405 -0.2376 0.8071
vn -0.3195 -0.6777 0.6623
vn 0.5006 -0.6455 0.5768
vn 0.6445 -0.2253 0.7307
vn 0.1217 -0.9566 0.2647
vn 0.8711 -0.3837 -0.3065
vn 0.5622 -0.6772 -0.4746
vn 0.5807 -0.2859 -0.7623
vn 0.2360 -0.7086 -0.6650
vn 0.0793 -0.4002 -0.9130
vn 0.0091 -0.9001 -0.4357
vn -0.3121 -0.5664 -0.7627
vn 0.3985 -0.9121 -0.0959
vn -0.8733 -0.2730 -0.4035
vn -0.4845 -0.2125 -0.8486
vn -0.0436 -0.1394 -0.9893
vn 0.5408 -0.0951 -0.8358
vn 0.9458 -0.1280 -0.2986
vn 0.9505 -0.1939 0.2426
vn 0.8135 -0.5633 0.1443
vn -0.9077 -0.2716 0.3198
vn -0.9166 -0.0482 -0.3969
vn -0.5234 -0.0336 -0.8514
vn -0.0756 -0.0029 -0.9971
vn 0.5250 0.0152 -0.8510
vn 0.9453 -0.0044 -0.3262
vn 0.9704 -0.0340 0.2393
vn 0.6488 -0.0437 0.7597
vn 0.0217 -0.0450 0.9988
vn -0.5599 -0.0451 0.8273
vn -0.9453 -0.0457 0.3231
vn -0.9419 0.1182 0.3145
vn -0.9085 0.1218 -0.3997
vn -0.5180 0.1134 -0.8478
vn -0.5243 0.0471 -0.8503
vn -0.0781 0.1242 -0.9892
vn 0.5117 0.1373 -0.8481
vn 0.9313 0.1324 -0.3393
vn 0.9659 0.1199 0.2295
vn 0.6463 0.1177 0.7540
vn 0.0269 0.1185 0.9926
vn -0.5570 0.1107 0.8231
vn -0.9144 0.2731 0.2987
vn -0.8721 0.2780 -0.4028
vn -0.4917 0.2727 -0.8269
vn -0.0713 0.2832 -0.9564
vn 0.4869 0.2945 -0.8223
vn 0.8936 0.2957 -0.3377
vn 0.9317 0.2895 0.2192
vn 0.6232 0.2885 0.7269
vn 0.0371 0.2906 0.9561
vn -0.5401 0.2734 0.7960
vn -0.5006 0.4602 0.7332
vn -0.8511 0.4502 0.2700
vn -0.8045 0.4569 -0.3794
vn -0.4481 0.4617 -0.7655
vn -0.0644 0.4714 -0.8796
vn 0.4424 0.4809 -0.7570
vn 0.8164 0.4832 -0.3164
vn 0.8526 0.4787 0.2095
vn 0.5637 0.4811 0.6714
vn 0.0290 0.4790 0.8773
vn -0.4231 0.6651 0.6153
vn -0.7195 0.6560 0.2278
vn -0.6724 0.6680 -0.3189
vn -0.3737 0.6726 -0.6387
vn -0.0581 0.6794 -0.7315
vn 0.3540 0.6866 -0.6351
vn 0.6665 0.6932 -0.2744
vn 0.7028 0.6882 0.1801
vn 0.4525 0.6888 0.5664
vn 0.0110 0.6837 0.7297
vn -0.2197 0.9092 0.3538
vn 0.0850 0.9964 -0.0067
vn 0.1084 0.9934 0.0385
vn -0.1849 0.9155 -0.3572
vn -0.0338 0.9125 -0.4076
vn 0.1623 0.9145 -0.3706
vn 0.3319 0.9286 -0.1662
vn 0.0000 1.0000 -0.0000
vn 0.0000 0.0000 1.0000
vn 0.0000 0.2295 0.9733
vn 0.0000 0.2153 0.9766
vn 1.0000 0.0000 -0.0000
vn 0.9887 0.1496 -0.0000
vn 0.9909 0.1348 -0.0000
vn 0.0000 0.0000 -1.0000
vn 0.0000 0.1206 -0.9927
vn 0.0000 0.1295 -0.9916
vn -1.0000 0.0000 -0.0000
vn -0.9803 0.1975 -0.0000
vn -0.9760 0.2177 -0.0000
vn 0.0000 0.4894 0.8721
vn 0.0000 0.4874 0.8732
vn 0.8859 0.4639 -0.0000
vn 0.9011 0.4337 -0.0000
vn 0.0000 0.1347 -0.9909
vn 0.0000 0.1835 -0.9830
vn -0.9734 0.2291 -0.0000
vn -0.9905 0.1377 -0.0000
vn 0.0000 0.4793 0.8776
vn 0.7931 0.6091 -0.0000
vn 0.0000 -0.0413 -0.9991
vn -0.9671 -0.2545 -0.0000
# 125 vertex normals

vt 0.6462 0.7901 0.0000
vt 0.6848 0.8297 0.0000
vt 0.6362 0.8424 0.0000
vt 0.6149 0.8148 0.0000
vt 0.5761 0.8582 0.0000
vt 0.5537 0.8885 0.0000
vt 0.5336 0.8488 0.0000
vt 0.5639 0.8159 0.0000
vt 0.5761 0.7976 0.0000
vt 0.5944 0.7597 0.0000
vt 0.3362 0.1729 0.0000
vt 0.2523 0.1415 0.0000
vt 0.3133 0.0629 0.0000
vt 0.4935 0.8880 0.0000
vt 0.4658 0.8478 0.0000
vt 0.5029 0.8471 0.0000
vt 0.5362 0.8991 0.0000
vt 0.5261 0.8585 0.0000
vt 0.5094 0.8277 0.0000
vt 0.4965 0.7310 0.0000
vt 0.4826 0.7707 0.0000
vt 0.4607 0.7368 0.0000
vt 0.7124 0.3086 0.0000
vt 0.7014 0.3871 0.0000
vt 0.6043 0.3730 0.0000
vt 0.6208 0.2750 0.0000
vt 0.8139 0.3181 0.0000
vt 0.8070 0.4111 0.0000
vt 0.6867 0.2171 0.0000
vt 0.8086 0.2203 0.0000
vt 0.0181 0.3525 0.0000
vt 0.0870 0.2891 0.0000
vt 0.1213 0.3827 0.0000
vt 0.1773 0.2855 0.0000
vt 0.2222 0.3427 0.0000
vt 0.1980 0.2518 0.0000
vt 0.2756 0.3010 0.0000
vt 0.0904 0.2206 0.0000
vt 0.1360 0.1011 0.0000
vt 0.4045 0.2726 0.0000
vt 0.4184 0.3691 0.0000
vt 0.3090 0.3943 0.0000
vt 0.2540 0.4176 0.0000
vt 0.1436 0.4569 0.0000
vt 0.0020 0.4592 0.0000
vt 0.9231 0.4396 0.0000
vt 0.9275 0.3386 0.0000
vt 0.9904 0.3480 0.0000
vt 0.9980 0.4592 0.0000
vt 0.9305 0.2381 0.0000
vt 0.9921 0.2585 0.0000
vt 0.2156 0.0020 0.0000
vt 0.5087 0.3666 0.0000
vt 0.5110 0.2670 0.0000
vt 0.4232 0.4583 0.0000
vt 0.3271 0.4723 0.0000
vt 0.2736 0.4887 0.0000
vt 0.1621 0.5254 0.0000
vt 0.0240 0.5577 0.0000
vt 0.9090 0.5326 0.0000
vt 0.9795 0.5625 0.0000
vt 0.7914 0.4961 0.0000
vt 0.6881 0.4741 0.0000
vt 0.5985 0.4607 0.0000
vt 0.5064 0.4556 0.0000
vt 0.5048 0.5302 0.0000
vt 0.4272 0.5334 0.0000
vt 0.3397 0.5445 0.0000
vt 0.3340 0.5090 0.0000
vt 0.2909 0.5576 0.0000
vt 0.1870 0.5958 0.0000
vt 0.0634 0.6486 0.0000
vt 0.8788 0.6209 0.0000
vt 0.9401 0.6574 0.0000
vt 0.7704 0.5745 0.0000
vt 0.6736 0.5483 0.0000
vt 0.5903 0.5340 0.0000
vt 0.5037 0.5896 0.0000
vt 0.4321 0.5941 0.0000
vt 0.3539 0.6110 0.0000
vt 0.3114 0.6244 0.0000
vt 0.2199 0.6651 0.0000
vt 0.1193 0.7298 0.0000
vt 0.8336 0.6998 0.0000
vt 0.8809 0.7415 0.0000
vt 0.7427 0.6450 0.0000
vt 0.6575 0.6142 0.0000
vt 0.5793 0.5960 0.0000
vt 0.5638 0.6612 0.0000
vt 0.5011 0.6525 0.0000
vt 0.4415 0.6567 0.0000
vt 0.3761 0.6769 0.0000
vt 0.3392 0.6913 0.0000
vt 0.2630 0.7348 0.0000
vt 0.1914 0.7991 0.0000
vt 0.7728 0.7687 0.0000
vt 0.8026 0.8089 0.0000
vt 0.7050 0.7157 0.0000
vt 0.6339 0.6801 0.0000
vt 0.5458 0.7196 0.0000
vt 0.4974 0.7091 0.0000
vt 0.4542 0.7157 0.0000
vt 0.4029 0.7362 0.0000
vt 0.3710 0.7511 0.0000
vt 0.3098 0.7888 0.0000
vt 0.2628 0.8424 0.0000
vt 0.7099 0.8168 0.0000
vt 0.7248 0.8477 0.0000
vt 0.6618 0.7739 0.0000
vt 0.6044 0.7418 0.0000
vt 0.5404 0.7384 0.0000
vt 0.5316 0.7794 0.0000
vt 0.4637 0.8199 0.0000
vt 0.4324 0.7905 0.0000
vt 0.4110 0.7548 0.0000
vt 0.4036 0.8031 0.0000
vt 0.3814 0.7677 0.0000
vt 0.3638 0.8267 0.0000
vt 0.3268 0.8028 0.0000
vt 0.3437 0.8572 0.0000
vt 0.2922 0.8541 0.0000
vt 0.6418 0.8589 0.0000
vt 0.6939 0.8562 0.0000
vt 0.6272 0.1234 0.0000
vt 0.6430 0.1144 0.0000
vt 0.6578 0.1334 0.0000
vt 0.6320 0.1442 0.0000
vt 0.6438 0.0243 0.0000
vt 0.6433 0.0444 0.0000
vt 0.5841 0.0628 0.0000
vt 0.5718 0.0462 0.0000
vt 0.7176 0.0484 0.0000
vt 0.7048 0.0678 0.0000
vt 0.7826 0.1112 0.0000
vt 0.7610 0.1302 0.0000
vt 0.5440 0.1257 0.0000
vt 0.5218 0.1112 0.0000
vt 0.6465 0.0869 0.0000
vt 0.6148 0.1017 0.0000
vt 0.6774 0.1040 0.0000
vt 0.7013 0.1426 0.0000
vt 0.5990 0.1390 0.0000
vt 0.6740 0.1641 0.0000
# 143 texture coords

g Group40502
usemtl Material__25
s 1
f 1/1/1 2/2/2 3/3/3 4/4/4 
f 4/5/4 3/6/3 5/7/5 6/8/6 
f 4/4/4 6/9/6 7/10/7 1/1/1 
f 8/11/8 9/12/9 10/13/10 
f 11/14/11 12/15/12 13/16/13 
f 14/17/14 11/14/11 13/16/13 15/18/15 
f 13/16/13 16/19/16 5/7/5 15/18/15 
f 15/18/15 5/7/5 3/6/3 14/17/14 
f 17/20/17 18/21/18 19/22/19 
f 20/23/20 21/24/21 22/25/22 23/26/23 
f 24/27/24 25/28/25 21/24/21 20/23/20 
f 23/29/23 26/30/26 24/27/24 20/23/20 
f 27/31/27 28/32/28 29/33/29 
f 30/34/30 31/35/31 29/33/29 28/32/28 
f 30/34/30 32/36/32 33/37/33 31/35/31 
f 30/34/30 28/32/28 34/38/34 32/36/32 
f 34/38/34 26/39/26 9/12/9 32/36/32 
f 9/12/9 8/11/8 33/37/33 32/36/32 
f 8/40/8 35/41/35 36/42/36 33/37/33 
f 36/42/36 37/43/37 31/35/31 33/37/33 
f 37/43/37 38/44/38 29/33/29 31/35/31 
f 38/44/38 39/45/39 27/31/27 29/33/29 
f 40/46/40 41/47/41 27/48/27 39/49/39 
f 41/47/41 40/46/40 25/28/25 24/27/24 
f 24/27/24 26/30/26 34/50/34 41/47/41 
f 34/50/34 28/51/28 27/48/27 41/47/41 
f 10/13/10 9/12/9 26/39/26 23/52/23 
f 22/25/22 42/53/42 10/54/10 23/26/23 
f 35/41/35 8/40/8 10/54/10 42/53/42 
f 43/55/43 44/56/44 36/42/36 35/41/35 
f 44/56/44 45/57/45 37/43/37 36/42/36 
f 46/58/46 38/44/38 37/43/37 45/57/45 
f 47/59/47 39/45/39 38/44/38 46/58/46 
f 48/60/48 40/46/40 39/49/39 47/61/47 
f 49/62/49 25/28/25 40/46/40 48/60/48 
f 25/28/25 49/62/49 50/63/50 21/24/21 
f 21/24/21 50/63/50 51/64/51 22/25/22 
f 22/25/22 51/64/51 52/65/52 42/53/42 
f 52/65/52 43/55/43 35/41/35 42/53/42 
f 52/65/52 53/66/53 54/67/54 43/55/43 
f 54/67/54 55/68/55 56/69/56 44/56/44 
f 54/67/54 44/56/44 43/55/43 
f 56/69/56 55/68/55 57/70/57 45/57/45 
f 56/69/56 45/57/45 44/56/44 
f 57/70/57 58/71/58 46/58/46 45/57/45 
f 59/72/59 47/59/47 46/58/46 58/71/58 
f 60/73/60 48/60/48 47/61/47 59/74/59 
f 61/75/61 49/62/49 48/60/48 60/73/60 
f 49/62/49 61/75/61 62/76/62 50/63/50 
f 62/76/62 63/77/63 51/64/51 50/63/50 
f 63/77/63 53/66/53 52/65/52 51/64/51 
f 64/78/64 65/79/65 54/67/54 53/66/53 
f 65/79/65 66/80/66 55/68/55 54/67/54 
f 66/80/66 67/81/67 57/70/57 55/68/55 
f 67/81/67 68/82/68 58/71/58 57/70/57 
f 69/83/69 59/72/59 58/71/58 68/82/68 
f 70/84/70 60/73/60 59/74/59 69/85/69 
f 71/86/71 61/75/61 60/73/60 70/84/70 
f 71/86/71 72/87/72 62/76/62 61/75/61 
f 62/76/62 72/87/72 73/88/73 63/77/63 
f 73/88/73 64/78/64 53/66/53 63/77/63 
f 73/88/73 74/89/74 75/90/75 64/78/64 
f 75/90/75 76/91/76 65/79/65 64/78/64 
f 77/92/77 66/80/66 65/79/65 76/91/76 
f 78/93/78 67/81/67 66/80/66 77/92/77 
f 79/94/79 68/82/68 67/81/67 78/93/78 
f 79/94/79 80/95/80 69/83/69 68/82/68 
f 81/96/81 70/84/70 69/85/69 80/97/80 
f 82/98/82 71/86/71 70/84/70 81/96/81 
f 83/99/83 72/87/72 71/86/71 82/98/82 
f 83/99/83 74/89/74 73/88/73 72/87/72 
f 84/100/84 85/101/85 75/90/75 74/89/74 
f 85/101/85 86/102/86 76/91/76 75/90/75 
f 86/102/86 87/103/87 77/92/77 76/91/76 
f 88/104/88 78/93/78 77/92/77 87/103/87 
f 89/105/89 79/94/79 78/93/78 88/104/88 
f 90/106/90 80/95/80 79/94/79 89/105/89 
f 91/107/91 81/96/81 80/97/80 90/108/90 
f 91/107/91 92/109/92 82/98/82 81/96/81 
f 92/109/92 93/110/93 83/99/83 82/98/82 
f 93/110/93 84/100/84 74/89/74 83/99/83 
f 7/10/7 94/111/94 84/100/84 93/110/93 
f 84/100/84 94/111/94 17/20/17 85/101/85 
f 17/20/17 19/22/19 86/102/86 85/101/85 
f 94/111/94 95/112/95 18/21/18 17/20/17 
f 16/19/16 96/113/96 18/21/18 95/112/95 
f 96/114/96 97/115/97 19/22/19 18/21/18 
f 87/103/87 86/102/86 19/22/19 97/115/97 
f 97/115/97 96/114/96 12/116/12 98/117/98 
f 87/103/87 97/115/97 98/117/98 88/104/88 
f 98/117/98 12/116/12 11/118/11 99/119/99 
f 99/119/99 89/105/89 88/104/88 98/117/98 
f 11/118/11 14/120/14 100/121/100 99/119/99 
f 100/121/100 90/106/90 89/105/89 99/119/99 
f 14/122/14 3/3/3 2/2/2 100/123/100 
f 91/107/91 90/108/90 100/123/100 2/2/2 
f 2/2/2 1/1/1 92/109/92 91/107/91 
f 1/1/1 7/10/7 93/110/93 92/109/92 
f 95/112/95 94/111/94 7/10/7 6/9/6 
f 6/8/6 5/7/5 16/19/16 95/112/95 
f 13/16/13 12/15/12 96/113/96 16/19/16 
usemtl Material__26
s 4
f 101/124/101 102/125/101 103/126/101 104/127/101 
s 8
f 105/128/102 106/129/103 107/130/104 108/131/102 
s 16
f 109/132/105 110/133/106 106/129/107 105/128/105 
s 32
f 111/134/108 112/135/109 110/133/110 109/132/108 
s 64
f 108/131/111 107/130/112 112/136/113 111/137/111 
s 8
f 106/129/103 113/138/114 114/139/115 107/130/104 
s 16
f 110/133/106 115/140/116 113/138/117 106/129/107 
s 32
f 110/133/110 112/135/109 116/141/118 115/140/119 
s 64
f 112/136/113 107/130/112 114/139/120 116/142/121 
s 8
f 114/139/115 113/138/114 102/125/122 101/124/122 
s 16
f 115/140/116 103/126/123 102/125/123 113/138/117 
s 32
f 116/141/118 104/143/124 103/126/124 115/140/119 
s 64
f 116/142/121 114/139/120 101/124/125 104/127/125 
# 108 polygons - 6 triangles

#
# object Plane006
#

v  10.2807 13.0062 -4.6137
v  8.3337 18.3323 -4.6869
v  6.7394 18.4339 4.7198
v  8.6864 13.1078 4.7930
v  3.2118 21.9933 4.3404
v  4.8061 21.8917 -5.0665
v  0.0695 21.3753 -5.8635
v  -1.5247 21.4769 3.5431
v  8.7551 8.1028 -1.5872
v  7.9673 16.2580 -2.2014
v  4.5701 16.3596 6.7141
v  5.3578 8.2044 7.3283
v  2.7587 21.9933 5.2114
v  6.1559 21.8917 -3.7043
v  1.6656 21.3753 -5.4093
v  -1.7316 21.4769 3.5062
v  6.8002 13.0062 8.0469
v  6.2043 18.3323 6.1918
v  -3.1815 18.4339 7.9050
v  -2.5856 13.1078 9.7600
v  -4.0293 21.9933 4.4599
v  5.3566 21.8917 2.7466
v  4.4887 21.3753 -1.9775
v  -4.8971 21.4769 -0.2643
v  -5.3136 6.9484 6.9602
v  -3.8712 14.8930 6.1506
v  -9.1877 14.9946 -1.7717
v  -10.6300 7.0500 -0.9621
v  -7.5487 21.2800 -2.6608
v  -2.2321 21.1784 5.2616
v  1.7531 21.3228 2.5805
v  -3.5634 21.4244 -5.3418
v  -9.4025 9.8599 -2.6588
v  -8.1490 16.4488 -1.5795
v  -2.5180 16.5504 -9.2814
v  -3.7713 9.9615 -10.3606
v  -1.1227 21.2800 -8.0444
v  -6.7538 21.1784 -0.3424
v  -2.8732 21.3228 2.4879
v  2.7579 21.4244 -5.2139
v  1.8930 8.1028 -9.7404
v  1.0467 16.2580 -9.2096
v  8.2666 16.3596 -2.9726
v  9.1128 8.2044 -3.5033
v  6.2358 21.9933 -1.7832
v  -0.9843 21.8917 -8.0202
v  -4.1199 21.3753 -4.3819
v  3.0999 21.4769 1.8551
# 48 vertices

vn 0.7656 0.5630 0.3110
vn 0.6649 0.6973 0.2677
vn 0.2407 0.9666 0.0887
vn -0.0947 0.9942 -0.0507
# 4 vertex normals

vt 0.9980 0.3591 0.0000
vt 0.7568 0.5931 0.0000
vt 0.4103 0.2360 0.0000
vt 0.6516 0.0020 0.0000
vt 0.1828 0.4568 0.0000
vt 0.5292 0.8139 0.0000
vt 0.3484 0.9893 0.0000
vt 0.0020 0.6322 0.0000
# 8 texture coords

g Plane006
usemtl Material__25
s 1
f 117/144/126 118/145/127 119/146/127 120/147/126 
f 121/148/128 119/146/127 118/145/127 122/149/128 
s 2
f 123/150/129 124/151/129 121/148/128 122/149/128 
s 1
f 125/144/126 126/145/127 127/146/127 128/147/126 
f 129/148/128 127/146/127 126/145/127 130/149/128 
s 2
f 131/150/129 132/151/129 129/148/128 130/149/128 
s 1
f 133/144/126 134/145/127 135/146/127 136/147/126 
f 137/148/128 135/146/127 134/145/127 138/149/128 
s 2
f 139/150/129 140/151/129 137/148/128 138/149/128 
s 1
f 141/144/126 142/145/127 143/146/127 144/147/126 
f 145/148/128 143/146/127 142/145/127 146/149/128 
s 2
f 147/150/129 148/151/129 145/148/128 146/149/128 
s 1
f 149/144/126 150/145/127 151/146/127 152/147/126 
f 153/148/128 151/146/127 150/145/127 154/149/128 
s 2
f 155/150/129 156/151/129 153/148/128 154/149/128 
s 1
f 157/144/126 158/145/127 159/146/127 160/147/126 
f 161/148/128 159/146/127 158/145/127 162/149/128 
s 2
f 163/150/129 164/151/129 161/148/128 162/149/128 
# 18 polygons

